<?xml version='1.0' encoding='utf-8'?>
<svg version='1.2' baseProfile='tiny' xmlns='http://www.w3.org/2000/svg'  x='0in' y='0in' width='1.8in' height='0.1in' viewBox='0 0 18000 1000'>
<g id='breadboard' >
		
		<polygon fill='#404040' points='217.113,0 0,217.113 0,782.747 217.113,1000 782.747,1000 1000,782.747 1000,217.113 782.747,0 217.113,0'/>
		<rect id="connector0pin" x="306.153" y="306.153" fill="none" width="387.692" height="387.692"/>
		<rect id="connector0terminal" x="349.77" y="342.964" fill="none" width="300.597" height="314.210"/>
		<rect x="340.463" y="340.463" fill="#8D8C8C" width="319.211" height="319.211"/>
		<rect x="417.974" y="417.974" fill="#8C8663" width="164.189" height="164.189"/>
		<polygon fill="#B8AF82" points="340.463,340.463 417.974,417.974 582.025,417.974 659.674,340.463"/>
		<polygon fill="#80795B" points="582.025,582.025 582.025,417.974 659.674,340.463 659.674,659.674 	"/>
		<polygon fill="#5E5B43" points="417.974,582.025 582.025,582.025 659.674,659.674 340.463,659.674		"/>
		<polygon fill="#9A916C" points="340.463,340.463 417.974,417.974 417.974,582.025 340.463,659.674 	"/>
		
		<polygon fill='#404040' points='1217.11,0 1000,217.113 1000,782.747 1217.11,1000 1782.75,1000 2000,782.747 2000,217.113 1782.75,0 1217.11,0'/>
		<rect id="connector1pin" x="1306.15" y="306.153" fill="none" width="387.692" height="387.692"/>
		<rect id="connector1terminal" x="1349.77" y="342.964" fill="none" width="300.597" height="314.210"/>
		<rect x="1340.46" y="340.463" fill="#8D8C8C" width="319.211" height="319.211"/>
		<rect x="1417.97" y="417.974" fill="#8C8663" width="164.189" height="164.189"/>
		<polygon fill="#B8AF82" points="1340.46,340.463 1417.97,417.974 1582.03,417.974 1659.67,340.463"/>
		<polygon fill="#80795B" points="1582.03,582.025 1582.03,417.974 1659.67,340.463 1659.67,659.674 	"/>
		<polygon fill="#5E5B43" points="1417.97,582.025 1582.03,582.025 1659.67,659.674 1340.46,659.674		"/>
		<polygon fill="#9A916C" points="1340.46,340.463 1417.97,417.974 1417.97,582.025 1340.46,659.674 	"/>
		
		<polygon fill='#404040' points='2217.11,0 2000,217.113 2000,782.747 2217.11,1000 2782.75,1000 3000,782.747 3000,217.113 2782.75,0 2217.11,0'/>
		<rect id="connector2pin" x="2306.15" y="306.153" fill="none" width="387.692" height="387.692"/>
		<rect id="connector2terminal" x="2349.77" y="342.964" fill="none" width="300.597" height="314.210"/>
		<rect x="2340.46" y="340.463" fill="#8D8C8C" width="319.211" height="319.211"/>
		<rect x="2417.97" y="417.974" fill="#8C8663" width="164.189" height="164.189"/>
		<polygon fill="#B8AF82" points="2340.46,340.463 2417.97,417.974 2582.03,417.974 2659.67,340.463"/>
		<polygon fill="#80795B" points="2582.03,582.025 2582.03,417.974 2659.67,340.463 2659.67,659.674 	"/>
		<polygon fill="#5E5B43" points="2417.97,582.025 2582.03,582.025 2659.67,659.674 2340.46,659.674		"/>
		<polygon fill="#9A916C" points="2340.46,340.463 2417.97,417.974 2417.97,582.025 2340.46,659.674 	"/>
		
		<polygon fill='#404040' points='3217.11,0 3000,217.113 3000,782.747 3217.11,1000 3782.75,1000 4000,782.747 4000,217.113 3782.75,0 3217.11,0'/>
		<rect id="connector3pin" x="3306.15" y="306.153" fill="none" width="387.692" height="387.692"/>
		<rect id="connector3terminal" x="3349.77" y="342.964" fill="none" width="300.597" height="314.210"/>
		<rect x="3340.46" y="340.463" fill="#8D8C8C" width="319.211" height="319.211"/>
		<rect x="3417.97" y="417.974" fill="#8C8663" width="164.189" height="164.189"/>
		<polygon fill="#B8AF82" points="3340.46,340.463 3417.97,417.974 3582.03,417.974 3659.67,340.463"/>
		<polygon fill="#80795B" points="3582.03,582.025 3582.03,417.974 3659.67,340.463 3659.67,659.674 	"/>
		<polygon fill="#5E5B43" points="3417.97,582.025 3582.03,582.025 3659.67,659.674 3340.46,659.674		"/>
		<polygon fill="#9A916C" points="3340.46,340.463 3417.97,417.974 3417.97,582.025 3340.46,659.674 	"/>
		
		<polygon fill='#404040' points='4217.11,0 4000,217.113 4000,782.747 4217.11,1000 4782.75,1000 5000,782.747 5000,217.113 4782.75,0 4217.11,0'/>
		<rect id="connector4pin" x="4306.15" y="306.153" fill="none" width="387.692" height="387.692"/>
		<rect id="connector4terminal" x="4349.77" y="342.964" fill="none" width="300.597" height="314.210"/>
		<rect x="4340.46" y="340.463" fill="#8D8C8C" width="319.211" height="319.211"/>
		<rect x="4417.97" y="417.974" fill="#8C8663" width="164.189" height="164.189"/>
		<polygon fill="#B8AF82" points="4340.46,340.463 4417.97,417.974 4582.02,417.974 4659.67,340.463"/>
		<polygon fill="#80795B" points="4582.02,582.025 4582.02,417.974 4659.67,340.463 4659.67,659.674 	"/>
		<polygon fill="#5E5B43" points="4417.97,582.025 4582.02,582.025 4659.67,659.674 4340.46,659.674		"/>
		<polygon fill="#9A916C" points="4340.46,340.463 4417.97,417.974 4417.97,582.025 4340.46,659.674 	"/>
		
		<polygon fill='#404040' points='5217.11,0 5000,217.113 5000,782.747 5217.11,1000 5782.75,1000 6000,782.747 6000,217.113 5782.75,0 5217.11,0'/>
		<rect id="connector5pin" x="5306.15" y="306.153" fill="none" width="387.692" height="387.692"/>
		<rect id="connector5terminal" x="5349.77" y="342.964" fill="none" width="300.597" height="314.210"/>
		<rect x="5340.46" y="340.463" fill="#8D8C8C" width="319.211" height="319.211"/>
		<rect x="5417.97" y="417.974" fill="#8C8663" width="164.189" height="164.189"/>
		<polygon fill="#B8AF82" points="5340.46,340.463 5417.97,417.974 5582.02,417.974 5659.67,340.463"/>
		<polygon fill="#80795B" points="5582.02,582.025 5582.02,417.974 5659.67,340.463 5659.67,659.674 	"/>
		<polygon fill="#5E5B43" points="5417.97,582.025 5582.02,582.025 5659.67,659.674 5340.46,659.674		"/>
		<polygon fill="#9A916C" points="5340.46,340.463 5417.97,417.974 5417.97,582.025 5340.46,659.674 	"/>
		
		<polygon fill='#404040' points='6217.11,0 6000,217.113 6000,782.747 6217.11,1000 6782.75,1000 7000,782.747 7000,217.113 6782.75,0 6217.11,0'/>
		<rect id="connector6pin" x="6306.15" y="306.153" fill="none" width="387.692" height="387.692"/>
		<rect id="connector6terminal" x="6349.77" y="342.964" fill="none" width="300.597" height="314.210"/>
		<rect x="6340.46" y="340.463" fill="#8D8C8C" width="319.211" height="319.211"/>
		<rect x="6417.97" y="417.974" fill="#8C8663" width="164.189" height="164.189"/>
		<polygon fill="#B8AF82" points="6340.46,340.463 6417.97,417.974 6582.02,417.974 6659.67,340.463"/>
		<polygon fill="#80795B" points="6582.02,582.025 6582.02,417.974 6659.67,340.463 6659.67,659.674 	"/>
		<polygon fill="#5E5B43" points="6417.97,582.025 6582.02,582.025 6659.67,659.674 6340.46,659.674		"/>
		<polygon fill="#9A916C" points="6340.46,340.463 6417.97,417.974 6417.97,582.025 6340.46,659.674 	"/>
		
		<polygon fill='#404040' points='7217.11,0 7000,217.113 7000,782.747 7217.11,1000 7782.75,1000 8000,782.747 8000,217.113 7782.75,0 7217.11,0'/>
		<rect id="connector7pin" x="7306.15" y="306.153" fill="none" width="387.692" height="387.692"/>
		<rect id="connector7terminal" x="7349.77" y="342.964" fill="none" width="300.597" height="314.210"/>
		<rect x="7340.46" y="340.463" fill="#8D8C8C" width="319.211" height="319.211"/>
		<rect x="7417.97" y="417.974" fill="#8C8663" width="164.189" height="164.189"/>
		<polygon fill="#B8AF82" points="7340.46,340.463 7417.97,417.974 7582.02,417.974 7659.67,340.463"/>
		<polygon fill="#80795B" points="7582.02,582.025 7582.02,417.974 7659.67,340.463 7659.67,659.674 	"/>
		<polygon fill="#5E5B43" points="7417.97,582.025 7582.02,582.025 7659.67,659.674 7340.46,659.674		"/>
		<polygon fill="#9A916C" points="7340.46,340.463 7417.97,417.974 7417.97,582.025 7340.46,659.674 	"/>
		
		<polygon fill='#404040' points='8217.11,0 8000,217.113 8000,782.747 8217.11,1000 8782.75,1000 9000,782.747 9000,217.113 8782.75,0 8217.11,0'/>
		<rect id="connector8pin" x="8306.15" y="306.153" fill="none" width="387.692" height="387.692"/>
		<rect id="connector8terminal" x="8349.77" y="342.964" fill="none" width="300.597" height="314.210"/>
		<rect x="8340.46" y="340.463" fill="#8D8C8C" width="319.211" height="319.211"/>
		<rect x="8417.97" y="417.974" fill="#8C8663" width="164.189" height="164.189"/>
		<polygon fill="#B8AF82" points="8340.46,340.463 8417.97,417.974 8582.02,417.974 8659.67,340.463"/>
		<polygon fill="#80795B" points="8582.02,582.025 8582.02,417.974 8659.67,340.463 8659.67,659.674 	"/>
		<polygon fill="#5E5B43" points="8417.97,582.025 8582.02,582.025 8659.67,659.674 8340.46,659.674		"/>
		<polygon fill="#9A916C" points="8340.46,340.463 8417.97,417.974 8417.97,582.025 8340.46,659.674 	"/>
		
		<polygon fill='#404040' points='9217.11,0 9000,217.113 9000,782.747 9217.11,1000 9782.75,1000 10000,782.747 10000,217.113 9782.75,0 9217.11,0'/>
		<rect id="connector9pin" x="9306.15" y="306.153" fill="none" width="387.692" height="387.692"/>
		<rect id="connector9terminal" x="9349.77" y="342.964" fill="none" width="300.597" height="314.210"/>
		<rect x="9340.46" y="340.463" fill="#8D8C8C" width="319.211" height="319.211"/>
		<rect x="9417.97" y="417.974" fill="#8C8663" width="164.189" height="164.189"/>
		<polygon fill="#B8AF82" points="9340.46,340.463 9417.97,417.974 9582.02,417.974 9659.67,340.463"/>
		<polygon fill="#80795B" points="9582.02,582.025 9582.02,417.974 9659.67,340.463 9659.67,659.674 	"/>
		<polygon fill="#5E5B43" points="9417.97,582.025 9582.02,582.025 9659.67,659.674 9340.46,659.674		"/>
		<polygon fill="#9A916C" points="9340.46,340.463 9417.97,417.974 9417.97,582.025 9340.46,659.674 	"/>
		
		<polygon fill='#404040' points='10217.1,0 10000,217.113 10000,782.747 10217.1,1000 10782.7,1000 11000,782.747 11000,217.113 10782.7,0 10217.1,0'/>
		<rect id="connector10pin" x="10306.2" y="306.153" fill="none" width="387.692" height="387.692"/>
		<rect id="connector10terminal" x="10349.8" y="342.964" fill="none" width="300.597" height="314.210"/>
		<rect x="10340.5" y="340.463" fill="#8D8C8C" width="319.211" height="319.211"/>
		<rect x="10418" y="417.974" fill="#8C8663" width="164.189" height="164.189"/>
		<polygon fill="#B8AF82" points="10340.5,340.463 10418,417.974 10582,417.974 10659.7,340.463"/>
		<polygon fill="#80795B" points="10582,582.025 10582,417.974 10659.7,340.463 10659.7,659.674 	"/>
		<polygon fill="#5E5B43" points="10418,582.025 10582,582.025 10659.7,659.674 10340.5,659.674		"/>
		<polygon fill="#9A916C" points="10340.5,340.463 10418,417.974 10418,582.025 10340.5,659.674 	"/>
		
		<polygon fill='#404040' points='11217.1,0 11000,217.113 11000,782.747 11217.1,1000 11782.7,1000 12000,782.747 12000,217.113 11782.7,0 11217.1,0'/>
		<rect id="connector11pin" x="11306.2" y="306.153" fill="none" width="387.692" height="387.692"/>
		<rect id="connector11terminal" x="11349.8" y="342.964" fill="none" width="300.597" height="314.210"/>
		<rect x="11340.5" y="340.463" fill="#8D8C8C" width="319.211" height="319.211"/>
		<rect x="11418" y="417.974" fill="#8C8663" width="164.189" height="164.189"/>
		<polygon fill="#B8AF82" points="11340.5,340.463 11418,417.974 11582,417.974 11659.7,340.463"/>
		<polygon fill="#80795B" points="11582,582.025 11582,417.974 11659.7,340.463 11659.7,659.674 	"/>
		<polygon fill="#5E5B43" points="11418,582.025 11582,582.025 11659.7,659.674 11340.5,659.674		"/>
		<polygon fill="#9A916C" points="11340.5,340.463 11418,417.974 11418,582.025 11340.5,659.674 	"/>
		
		<polygon fill='#404040' points='12217.1,0 12000,217.113 12000,782.747 12217.1,1000 12782.7,1000 13000,782.747 13000,217.113 12782.7,0 12217.1,0'/>
		<rect id="connector12pin" x="12306.2" y="306.153" fill="none" width="387.692" height="387.692"/>
		<rect id="connector12terminal" x="12349.8" y="342.964" fill="none" width="300.597" height="314.210"/>
		<rect x="12340.5" y="340.463" fill="#8D8C8C" width="319.211" height="319.211"/>
		<rect x="12418" y="417.974" fill="#8C8663" width="164.189" height="164.189"/>
		<polygon fill="#B8AF82" points="12340.5,340.463 12418,417.974 12582,417.974 12659.7,340.463"/>
		<polygon fill="#80795B" points="12582,582.025 12582,417.974 12659.7,340.463 12659.7,659.674 	"/>
		<polygon fill="#5E5B43" points="12418,582.025 12582,582.025 12659.7,659.674 12340.5,659.674		"/>
		<polygon fill="#9A916C" points="12340.5,340.463 12418,417.974 12418,582.025 12340.5,659.674 	"/>
		
		<polygon fill='#404040' points='13217.1,0 13000,217.113 13000,782.747 13217.1,1000 13782.7,1000 14000,782.747 14000,217.113 13782.7,0 13217.1,0'/>
		<rect id="connector13pin" x="13306.2" y="306.153" fill="none" width="387.692" height="387.692"/>
		<rect id="connector13terminal" x="13349.8" y="342.964" fill="none" width="300.597" height="314.210"/>
		<rect x="13340.5" y="340.463" fill="#8D8C8C" width="319.211" height="319.211"/>
		<rect x="13418" y="417.974" fill="#8C8663" width="164.189" height="164.189"/>
		<polygon fill="#B8AF82" points="13340.5,340.463 13418,417.974 13582,417.974 13659.7,340.463"/>
		<polygon fill="#80795B" points="13582,582.025 13582,417.974 13659.7,340.463 13659.7,659.674 	"/>
		<polygon fill="#5E5B43" points="13418,582.025 13582,582.025 13659.7,659.674 13340.5,659.674		"/>
		<polygon fill="#9A916C" points="13340.5,340.463 13418,417.974 13418,582.025 13340.5,659.674 	"/>
		
		<polygon fill='#404040' points='14217.1,0 14000,217.113 14000,782.747 14217.1,1000 14782.7,1000 15000,782.747 15000,217.113 14782.7,0 14217.1,0'/>
		<rect id="connector14pin" x="14306.2" y="306.153" fill="none" width="387.692" height="387.692"/>
		<rect id="connector14terminal" x="14349.8" y="342.964" fill="none" width="300.597" height="314.210"/>
		<rect x="14340.5" y="340.463" fill="#8D8C8C" width="319.211" height="319.211"/>
		<rect x="14418" y="417.974" fill="#8C8663" width="164.189" height="164.189"/>
		<polygon fill="#B8AF82" points="14340.5,340.463 14418,417.974 14582,417.974 14659.7,340.463"/>
		<polygon fill="#80795B" points="14582,582.025 14582,417.974 14659.7,340.463 14659.7,659.674 	"/>
		<polygon fill="#5E5B43" points="14418,582.025 14582,582.025 14659.7,659.674 14340.5,659.674		"/>
		<polygon fill="#9A916C" points="14340.5,340.463 14418,417.974 14418,582.025 14340.5,659.674 	"/>
		
		<polygon fill='#404040' points='15217.1,0 15000,217.113 15000,782.747 15217.1,1000 15782.7,1000 16000,782.747 16000,217.113 15782.7,0 15217.1,0'/>
		<rect id="connector15pin" x="15306.2" y="306.153" fill="none" width="387.692" height="387.692"/>
		<rect id="connector15terminal" x="15349.8" y="342.964" fill="none" width="300.597" height="314.210"/>
		<rect x="15340.5" y="340.463" fill="#8D8C8C" width="319.211" height="319.211"/>
		<rect x="15418" y="417.974" fill="#8C8663" width="164.189" height="164.189"/>
		<polygon fill="#B8AF82" points="15340.5,340.463 15418,417.974 15582,417.974 15659.7,340.463"/>
		<polygon fill="#80795B" points="15582,582.025 15582,417.974 15659.7,340.463 15659.7,659.674 	"/>
		<polygon fill="#5E5B43" points="15418,582.025 15582,582.025 15659.7,659.674 15340.5,659.674		"/>
		<polygon fill="#9A916C" points="15340.5,340.463 15418,417.974 15418,582.025 15340.5,659.674 	"/>
		
		<polygon fill='#404040' points='16217.1,0 16000,217.113 16000,782.747 16217.1,1000 16782.7,1000 17000,782.747 17000,217.113 16782.7,0 16217.1,0'/>
		<rect id="connector16pin" x="16306.2" y="306.153" fill="none" width="387.692" height="387.692"/>
		<rect id="connector16terminal" x="16349.8" y="342.964" fill="none" width="300.597" height="314.210"/>
		<rect x="16340.5" y="340.463" fill="#8D8C8C" width="319.211" height="319.211"/>
		<rect x="16418" y="417.974" fill="#8C8663" width="164.189" height="164.189"/>
		<polygon fill="#B8AF82" points="16340.5,340.463 16418,417.974 16582,417.974 16659.7,340.463"/>
		<polygon fill="#80795B" points="16582,582.025 16582,417.974 16659.7,340.463 16659.7,659.674 	"/>
		<polygon fill="#5E5B43" points="16418,582.025 16582,582.025 16659.7,659.674 16340.5,659.674		"/>
		<polygon fill="#9A916C" points="16340.5,340.463 16418,417.974 16418,582.025 16340.5,659.674 	"/>
		
		<polygon fill='#404040' points='17217.1,0 17000,217.113 17000,782.747 17217.1,1000 17782.7,1000 18000,782.747 18000,217.113 17782.7,0 17217.1,0'/>
		<rect id="connector17pin" x="17306.2" y="306.153" fill="none" width="387.692" height="387.692"/>
		<rect id="connector17terminal" x="17349.8" y="342.964" fill="none" width="300.597" height="314.210"/>
		<rect x="17340.5" y="340.463" fill="#8D8C8C" width="319.211" height="319.211"/>
		<rect x="17418" y="417.974" fill="#8C8663" width="164.189" height="164.189"/>
		<polygon fill="#B8AF82" points="17340.5,340.463 17418,417.974 17582,417.974 17659.7,340.463"/>
		<polygon fill="#80795B" points="17582,582.025 17582,417.974 17659.7,340.463 17659.7,659.674 	"/>
		<polygon fill="#5E5B43" points="17418,582.025 17582,582.025 17659.7,659.674 17340.5,659.674		"/>
		<polygon fill="#9A916C" points="17340.5,340.463 17418,417.974 17418,582.025 17340.5,659.674 	"/>
</g>
</svg>